<svg width="20" height="20" viewBox="0 0 20 20" fill="none" xmlns="http://www.w3.org/2000/svg">
<g opacity="0.6">
<path d="M12.3583 9.40831L8.82501 5.87498C8.74754 5.79687 8.65538 5.73488 8.55383 5.69257C8.45228 5.65026 8.34336 5.62848 8.23335 5.62848C8.12334 5.62848 8.01442 5.65026 7.91287 5.69257C7.81132 5.73488 7.71915 5.79687 7.64168 5.87498C7.48647 6.03111 7.39935 6.24232 7.39935 6.46248C7.39935 6.68263 7.48647 6.89384 7.64168 7.04998L10.5917 9.99998L7.64168 12.95C7.48647 13.1061 7.39935 13.3173 7.39935 13.5375C7.39935 13.7576 7.48647 13.9688 7.64168 14.125C7.71955 14.2022 7.81189 14.2633 7.91342 14.3048C8.01496 14.3463 8.12367 14.3673 8.23335 14.3666C8.34302 14.3673 8.45174 14.3463 8.55327 14.3048C8.6548 14.2633 8.74715 14.2022 8.82501 14.125L12.3583 10.5916C12.4365 10.5142 12.4984 10.422 12.5408 10.3205C12.5831 10.2189 12.6048 10.11 12.6048 9.99998C12.6048 9.88997 12.5831 9.78105 12.5408 9.6795C12.4984 9.57795 12.4365 9.48578 12.3583 9.40831Z" fill="#959595"/>
</g>
</svg>
