<svg width="21" height="20" viewBox="0 0 21 20" fill="none" xmlns="http://www.w3.org/2000/svg">
<path d="M16.3333 3.33329H14.6666V2.49996C14.6666 2.27895 14.5788 2.06698 14.4225 1.9107C14.2663 1.75442 14.0543 1.66663 13.8333 1.66663C13.6123 1.66663 13.4003 1.75442 13.244 1.9107C13.0878 2.06698 13 2.27895 13 2.49996V3.33329H7.99996V2.49996C7.99996 2.27895 7.91216 2.06698 7.75588 1.9107C7.5996 1.75442 7.38764 1.66663 7.16663 1.66663C6.94561 1.66663 6.73365 1.75442 6.57737 1.9107C6.42109 2.06698 6.33329 2.27895 6.33329 2.49996V3.33329H4.66663C4.00358 3.33329 3.3677 3.59668 2.89886 4.06553C2.43002 4.53437 2.16663 5.17025 2.16663 5.83329V15.8333C2.16663 16.4963 2.43002 17.1322 2.89886 17.6011C3.3677 18.0699 4.00358 18.3333 4.66663 18.3333H16.3333C16.9963 18.3333 17.6322 18.0699 18.1011 17.6011C18.5699 17.1322 18.8333 16.4963 18.8333 15.8333V5.83329C18.8333 5.17025 18.5699 4.53437 18.1011 4.06553C17.6322 3.59668 16.9963 3.33329 16.3333 3.33329ZM17.1666 15.8333C17.1666 16.0543 17.0788 16.2663 16.9225 16.4225C16.7663 16.5788 16.5543 16.6666 16.3333 16.6666H4.66663C4.44561 16.6666 4.23365 16.5788 4.07737 16.4225C3.92109 16.2663 3.83329 16.0543 3.83329 15.8333V9.99996H17.1666V15.8333ZM17.1666 8.33329H3.83329V5.83329C3.83329 5.61228 3.92109 5.40032 4.07737 5.24404C4.23365 5.08776 4.44561 4.99996 4.66663 4.99996H6.33329V5.83329C6.33329 6.05431 6.42109 6.26627 6.57737 6.42255C6.73365 6.57883 6.94561 6.66663 7.16663 6.66663C7.38764 6.66663 7.5996 6.57883 7.75588 6.42255C7.91216 6.26627 7.99996 6.05431 7.99996 5.83329V4.99996H13V5.83329C13 6.05431 13.0878 6.26627 13.244 6.42255C13.4003 6.57883 13.6123 6.66663 13.8333 6.66663C14.0543 6.66663 14.2663 6.57883 14.4225 6.42255C14.5788 6.26627 14.6666 6.05431 14.6666 5.83329V4.99996H16.3333C16.5543 4.99996 16.7663 5.08776 16.9225 5.24404C17.0788 5.40032 17.1666 5.61228 17.1666 5.83329V8.33329Z" fill="#959595"/>
</svg>
