<svg width="20" height="20" viewBox="0 0 20 20" fill="none" xmlns="http://www.w3.org/2000/svg">
<path d="M4.16666 16.6715H7.69999C7.80967 16.6722 7.91838 16.6512 8.01992 16.6097C8.12145 16.5682 8.21379 16.5071 8.29166 16.4299L14.0583 10.6549L16.425 8.33821C16.5031 8.26074 16.5651 8.16857 16.6074 8.06702C16.6497 7.96547 16.6715 7.85655 16.6715 7.74654C16.6715 7.63653 16.6497 7.52761 16.6074 7.42606C16.5651 7.32451 16.5031 7.23234 16.425 7.15487L12.8917 3.57987C12.8142 3.50177 12.722 3.43977 12.6205 3.39746C12.5189 3.35516 12.41 3.33337 12.3 3.33337C12.19 3.33337 12.0811 3.35516 11.9795 3.39746C11.878 3.43977 11.7858 3.50177 11.7083 3.57987L9.35833 5.93821L3.57499 11.7132C3.49776 11.7911 3.43665 11.8834 3.39518 11.985C3.35371 12.0865 3.33269 12.1952 3.33333 12.3049V15.8382C3.33333 16.0592 3.42112 16.2712 3.5774 16.4275C3.73369 16.5837 3.94565 16.6715 4.16666 16.6715ZM12.3 5.34654L14.6583 7.70487L13.475 8.88821L11.1167 6.52987L12.3 5.34654ZM4.99999 12.6465L9.94166 7.70487L12.3 10.0632L7.35833 15.0049H4.99999V12.6465Z" fill="#959595"/>
</svg>
