<svg width="22" height="22" viewBox="0 0 22 22" fill="none" xmlns="http://www.w3.org/2000/svg">
<path d="M18.3334 7.33334L12.8334 2.51167C12.3292 2.06071 11.6765 1.8114 11 1.8114C10.3236 1.8114 9.67088 2.06071 9.16669 2.51167L3.66669 7.33334C3.37553 7.59374 3.14318 7.91318 2.98513 8.2704C2.82707 8.62761 2.74692 9.0144 2.75003 9.40501V17.4167C2.75003 18.146 3.03976 18.8455 3.55548 19.3612C4.07121 19.8769 4.77068 20.1667 5.50003 20.1667H16.5C17.2294 20.1667 17.9288 19.8769 18.4446 19.3612C18.9603 18.8455 19.25 18.146 19.25 17.4167V9.39584C19.2518 9.00677 19.1711 8.62175 19.013 8.26621C18.855 7.91068 18.6234 7.59272 18.3334 7.33334ZM12.8334 18.3333H9.16669V13.75C9.16669 13.5069 9.26327 13.2737 9.43518 13.1018C9.60709 12.9299 9.84024 12.8333 10.0834 12.8333H11.9167C12.1598 12.8333 12.393 12.9299 12.5649 13.1018C12.7368 13.2737 12.8334 13.5069 12.8334 13.75V18.3333ZM17.4167 17.4167C17.4167 17.6598 17.3201 17.8929 17.1482 18.0649C16.9763 18.2368 16.7431 18.3333 16.5 18.3333H14.6667V13.75C14.6667 13.0207 14.377 12.3212 13.8612 11.8055C13.3455 11.2897 12.646 11 11.9167 11H10.0834C9.35401 11 8.65454 11.2897 8.13882 11.8055C7.62309 12.3212 7.33336 13.0207 7.33336 13.75V18.3333H5.50003C5.25691 18.3333 5.02375 18.2368 4.85185 18.0649C4.67994 17.8929 4.58336 17.6598 4.58336 17.4167V9.39584C4.58352 9.26569 4.6114 9.13706 4.66514 9.01852C4.71888 8.89998 4.79725 8.79424 4.89503 8.70834L10.395 3.89584C10.5623 3.74888 10.7774 3.66783 11 3.66783C11.2227 3.66783 11.4377 3.74888 11.605 3.89584L17.105 8.70834C17.2028 8.79424 17.2812 8.89998 17.3349 9.01852C17.3886 9.13706 17.4165 9.26569 17.4167 9.39584V17.4167Z" fill="white"/>
</svg>
