<svg width="20" height="20" viewBox="0 0 20 20" fill="none" xmlns="http://www.w3.org/2000/svg">
<path d="M14.1666 7.50002V5.83335C14.1666 4.72829 13.7277 3.66848 12.9463 2.88708C12.1649 2.10567 11.105 1.66669 9.99998 1.66669C8.89491 1.66669 7.8351 2.10567 7.0537 2.88708C6.2723 3.66848 5.83331 4.72829 5.83331 5.83335V7.50002C5.17027 7.50002 4.53439 7.76341 4.06555 8.23225C3.59671 8.70109 3.33331 9.33698 3.33331 10V15.8334C3.33331 16.4964 3.59671 17.1323 4.06555 17.6011C4.53439 18.07 5.17027 18.3334 5.83331 18.3334H14.1666C14.8297 18.3334 15.4656 18.07 15.9344 17.6011C16.4033 17.1323 16.6666 16.4964 16.6666 15.8334V10C16.6666 9.33698 16.4033 8.70109 15.9344 8.23225C15.4656 7.76341 14.8297 7.50002 14.1666 7.50002ZM7.49998 5.83335C7.49998 5.17031 7.76337 4.53443 8.23221 4.06559C8.70105 3.59675 9.33694 3.33335 9.99998 3.33335C10.663 3.33335 11.2989 3.59675 11.7677 4.06559C12.2366 4.53443 12.5 5.17031 12.5 5.83335V7.50002H7.49998V5.83335ZM15 15.8334C15 16.0544 14.9122 16.2663 14.7559 16.4226C14.5996 16.5789 14.3877 16.6667 14.1666 16.6667H5.83331C5.6123 16.6667 5.40034 16.5789 5.24406 16.4226C5.08778 16.2663 4.99998 16.0544 4.99998 15.8334V10C4.99998 9.77901 5.08778 9.56705 5.24406 9.41077C5.40034 9.25449 5.6123 9.16669 5.83331 9.16669H14.1666C14.3877 9.16669 14.5996 9.25449 14.7559 9.41077C14.9122 9.56705 15 9.77901 15 10V15.8334Z" fill="#959595"/>
</svg>
