<svg width="20" height="20" viewBox="0 0 20 20" fill="none" xmlns="http://www.w3.org/2000/svg">
<path fill-rule="evenodd" clip-rule="evenodd" d="M9.99996 0.833313C8.45287 0.833313 6.96914 1.44789 5.87517 2.54186C4.78121 3.63582 4.16663 5.11955 4.16663 6.66665C4.16663 9.46053 3.56907 11.1955 3.01838 12.2051C2.74189 12.712 2.47265 13.0445 2.28563 13.242C2.1919 13.3409 2.11824 13.4065 2.0739 13.4435C2.05171 13.4619 2.03684 13.4733 2.03042 13.4781L2.02804 13.4798C1.7293 13.685 1.5971 14.0604 1.70239 14.4081C1.8088 14.7596 2.13274 15 2.49996 15H17.5C17.8672 15 18.1911 14.7596 18.2975 14.4081C18.4028 14.0604 18.2706 13.685 17.9719 13.4798L17.9695 13.4781C17.9631 13.4733 17.9482 13.4619 17.926 13.4435C17.8817 13.4065 17.808 13.3409 17.7143 13.242C17.5273 13.0445 17.258 12.712 16.9815 12.2051C16.4309 11.1955 15.8333 9.46053 15.8333 6.66665C15.8333 5.11955 15.2187 3.63582 14.1248 2.54186C13.0308 1.44789 11.5471 0.833313 9.99996 0.833313ZM15.7089 13.3333H4.29107C4.35447 13.2294 4.41813 13.1195 4.48154 13.0032C5.18085 11.7211 5.8333 9.7061 5.8333 6.66665C5.8333 5.56158 6.27228 4.50177 7.05369 3.72037C7.83509 2.93897 8.8949 2.49998 9.99996 2.49998C11.105 2.49998 12.1648 2.93897 12.9462 3.72037C13.7276 4.50177 14.1666 5.56158 14.1666 6.66665C14.1666 9.7061 14.8191 11.7211 15.5184 13.0032C15.5818 13.1195 15.6455 13.2294 15.7089 13.3333ZM9.27914 17.0819C9.04821 16.6838 8.53827 16.5482 8.14017 16.7792C7.74206 17.0101 7.60654 17.5201 7.83748 17.9182C8.05724 18.297 8.37267 18.6115 8.75219 18.8301C9.13171 19.0487 9.562 19.1637 9.99997 19.1637C10.4379 19.1637 10.8682 19.0487 11.2478 18.8301C11.6273 18.6115 11.9427 18.297 12.1625 17.9182C12.3934 17.5201 12.2579 17.0101 11.8598 16.7792C11.4617 16.5482 10.9517 16.6838 10.7208 17.0819C10.6476 17.2082 10.5424 17.313 10.4159 17.3858C10.2894 17.4587 10.146 17.4971 9.99997 17.4971C9.85398 17.4971 9.71055 17.4587 9.58405 17.3858C9.45754 17.313 9.3524 17.2082 9.27914 17.0819Z" fill="#959595"/>
</svg>
