<svg width="20" height="20" viewBox="0 0 20 20" fill="none" xmlns="http://www.w3.org/2000/svg">
<path d="M9.99613 1.66677C11.5536 1.65982 13.0818 2.08945 14.4074 2.90693C15.7331 3.72441 16.8031 4.89703 17.4961 6.29177C17.5956 6.49068 17.612 6.72096 17.5416 6.93194C17.4713 7.14291 17.32 7.31731 17.1211 7.41677C16.9222 7.51623 16.6919 7.53259 16.481 7.46227C16.27 7.39194 16.0956 7.24068 15.9961 7.04177C15.4693 5.97787 14.6679 5.07395 13.6748 4.42343C12.6817 3.7729 11.5329 3.39937 10.3472 3.34143C9.16139 3.28349 7.98165 3.54325 6.92986 4.09386C5.87808 4.64447 4.99241 5.46596 4.36437 6.47343C3.73634 7.48091 3.38873 8.63781 3.35746 9.82459C3.3262 11.0114 3.61241 12.185 4.18653 13.2241C4.76065 14.2633 5.60185 15.1302 6.62318 15.7355C7.64452 16.3407 8.80895 16.6622 9.99613 16.6668C11.2387 16.6722 12.4577 16.3271 13.5131 15.6711C14.5684 15.0152 15.4175 14.075 15.9628 12.9584C16.0623 12.7595 16.2367 12.6083 16.4476 12.5379C16.6586 12.4676 16.8889 12.484 17.0878 12.5834C17.2867 12.6829 17.438 12.8573 17.5083 13.0683C17.5786 13.2793 17.5623 13.5095 17.4628 13.7084C16.8021 15.038 15.7982 16.167 14.5549 16.9785C13.3116 17.79 11.8741 18.2546 10.391 18.3243C8.90797 18.3939 7.43322 18.0661 6.11934 17.3747C4.80546 16.6833 3.70015 15.6534 2.91774 14.3916C2.13533 13.1298 1.70424 11.6819 1.66905 10.1976C1.63386 8.71333 1.99586 7.2466 2.71759 5.94913C3.43933 4.65166 4.4946 3.57058 5.77424 2.81769C7.05388 2.06481 8.51143 1.66747 9.99613 1.66677Z" fill="#959595"/>
<path d="M11.4278 6.9055L11.4271 6.90483C11.3959 6.87384 11.3711 6.83697 11.3541 6.79635L10.8926 6.98864L11.3541 6.79635C11.3372 6.75573 11.3285 6.71216 11.3285 6.66816C11.3285 6.62416 11.3372 6.58059 11.3541 6.53997L10.8926 6.34768L11.3541 6.53997C11.3711 6.49935 11.3959 6.46248 11.4271 6.43149L11.43 6.42861L11.43 6.42859C11.461 6.39735 11.4979 6.37255 11.5385 6.35563L11.4278 6.9055ZM11.4278 6.9055L13.3445 8.81384L14.2025 9.66816M11.4278 6.9055L14.2025 9.66816M14.2025 9.66816L12.9917 9.66816M14.2025 9.66816L12.9917 9.66816M12.9917 9.66816L5.8338 9.66816L5.83333 9.66816L5.83272 9.66816C5.8326 9.66816 5.83248 9.66816 5.83235 9.66816C5.7443 9.66842 5.65991 9.70351 5.59763 9.76579C5.53512 9.8283 5.5 9.91309 5.5 10.0015C5.5 10.0899 5.53512 10.1747 5.59763 10.2372L5.24408 10.5907L5.59763 10.2372C5.65998 10.2995 5.74486 10.3348 5.83333 10.3348C5.83338 10.3348 5.83343 10.3348 5.83348 10.3348L12.9917 10.3348L14.2025 10.3348L13.3445 11.1892L11.4286 13.0967C11.4285 13.0968 11.4284 13.0969 11.4283 13.097C11.3971 13.1282 11.3724 13.1652 11.3556 13.206C11.3386 13.2468 11.3299 13.2906 11.3299 13.3348C11.3299 13.3791 11.3386 13.4228 11.3556 13.4637C11.3725 13.5045 11.3973 13.5417 11.4286 13.5729C11.4598 13.6042 11.4969 13.629 11.5378 13.6459C11.5787 13.6629 11.6224 13.6716 11.6667 13.6716C11.7109 13.6716 11.7547 13.6629 11.7955 13.6459C11.8364 13.629 11.8735 13.6042 11.9048 13.5729L12.2583 13.9265L11.9048 13.5729L15.2334 10.2443C15.2624 10.2133 15.2851 10.177 15.3005 10.1374L15.3004 10.1374L15.3042 10.1282C15.3375 10.047 15.3375 9.95598 15.3042 9.87483L15.3041 9.87486L15.3005 9.86558C15.2851 9.82598 15.2624 9.78969 15.2334 9.75865L11.9048 6.43005L11.9048 6.43005L11.9033 6.42859C11.8723 6.39735 11.8355 6.37255 11.7949 6.35563L12.9917 9.66816ZM11.7949 6.35563C11.7542 6.33871 11.7107 6.33 11.6667 6.33C11.6227 6.33 11.5791 6.33871 11.5385 6.35563L11.7949 6.35563Z" fill="#959595" stroke="#959595"/>
</svg>
