<svg width="22" height="22" viewBox="0 0 22 22" fill="none" xmlns="http://www.w3.org/2000/svg">
<path d="M17.4166 5.95835H14.6666V5.04169C14.6666 4.31234 14.3769 3.61287 13.8612 3.09714C13.3455 2.58142 12.646 2.29169 11.9166 2.29169H10.0833C9.35397 2.29169 8.65449 2.58142 8.13877 3.09714C7.62304 3.61287 7.33331 4.31234 7.33331 5.04169V5.95835H4.58331C3.85397 5.95835 3.15449 6.24809 2.63877 6.76381C2.12304 7.27954 1.83331 7.97901 1.83331 8.70835V16.9584C1.83331 17.6877 2.12304 18.3872 2.63877 18.9029C3.15449 19.4186 3.85397 19.7084 4.58331 19.7084H17.4166C18.146 19.7084 18.8455 19.4186 19.3612 18.9029C19.8769 18.3872 20.1666 17.6877 20.1666 16.9584V8.70835C20.1666 7.97901 19.8769 7.27954 19.3612 6.76381C18.8455 6.24809 18.146 5.95835 17.4166 5.95835ZM9.16665 5.04169C9.16665 4.79857 9.26322 4.56541 9.43513 4.39351C9.60704 4.2216 9.8402 4.12502 10.0833 4.12502H11.9166C12.1598 4.12502 12.3929 4.2216 12.5648 4.39351C12.7367 4.56541 12.8333 4.79857 12.8333 5.04169V5.95835H9.16665V5.04169ZM18.3333 16.9584C18.3333 17.2015 18.2367 17.4346 18.0648 17.6065C17.8929 17.7784 17.6598 17.875 17.4166 17.875H4.58331C4.3402 17.875 4.10704 17.7784 3.93513 17.6065C3.76322 17.4346 3.66665 17.2015 3.66665 16.9584V12.3292H6.41665V13.2917C6.41665 13.5348 6.51322 13.768 6.68513 13.9399C6.85704 14.1118 7.0902 14.2084 7.33331 14.2084C7.57643 14.2084 7.80959 14.1118 7.98149 13.9399C8.1534 13.768 8.24998 13.5348 8.24998 13.2917V12.3292H13.75V13.2917C13.75 13.5348 13.8466 13.768 14.0185 13.9399C14.1904 14.1118 14.4235 14.2084 14.6666 14.2084C14.9098 14.2084 15.1429 14.1118 15.3148 13.9399C15.4867 13.768 15.5833 13.5348 15.5833 13.2917V12.3292H18.3333V16.9584ZM18.3333 10.5417H3.66665V8.70835C3.66665 8.46524 3.76322 8.23208 3.93513 8.06017C4.10704 7.88826 4.3402 7.79169 4.58331 7.79169H17.4166C17.6598 7.79169 17.8929 7.88826 18.0648 8.06017C18.2367 8.23208 18.3333 8.46524 18.3333 8.70835V10.5417Z" fill="white" fill-opacity="0.4"/>
</svg>
