<svg width="22" height="22" viewBox="0 0 22 22" fill="none" xmlns="http://www.w3.org/2000/svg">
<path d="M11.275 11.2016C11.7641 10.7783 12.1564 10.2546 12.4253 9.66625C12.6942 9.07788 12.8334 8.43855 12.8334 7.79165C12.8334 6.57607 12.3505 5.41028 11.4909 4.55074C10.6314 3.6912 9.4656 3.20831 8.25002 3.20831C7.03444 3.20831 5.86866 3.6912 5.00911 4.55074C4.14957 5.41028 3.66669 6.57607 3.66669 7.79165C3.66668 8.43855 3.80584 9.07788 4.07472 9.66625C4.3436 10.2546 4.73591 10.7783 5.22502 11.2016C3.94182 11.7827 2.85311 12.721 2.08909 13.9045C1.32506 15.0879 0.918036 16.4663 0.916687 17.875C0.916687 18.1181 1.01326 18.3513 1.18517 18.5232C1.35708 18.6951 1.59024 18.7916 1.83335 18.7916C2.07647 18.7916 2.30963 18.6951 2.48153 18.5232C2.65344 18.3513 2.75002 18.1181 2.75002 17.875C2.75002 16.4163 3.32948 15.0173 4.36093 13.9859C5.39238 12.9544 6.79133 12.375 8.25002 12.375C9.70871 12.375 11.1077 12.9544 12.1391 13.9859C13.1706 15.0173 13.75 16.4163 13.75 17.875C13.75 18.1181 13.8466 18.3513 14.0185 18.5232C14.1904 18.6951 14.4236 18.7916 14.6667 18.7916C14.9098 18.7916 15.143 18.6951 15.3149 18.5232C15.4868 18.3513 15.5834 18.1181 15.5834 17.875C15.582 16.4663 15.175 15.0879 14.411 13.9045C13.6469 12.721 12.5582 11.7827 11.275 11.2016ZM8.25002 10.5416C7.70612 10.5416 7.17444 10.3804 6.7222 10.0782C6.26997 9.77601 5.91749 9.34652 5.70935 8.84403C5.50121 8.34153 5.44675 7.7886 5.55286 7.25515C5.65897 6.7217 5.92088 6.2317 6.30548 5.8471C6.69007 5.46251 7.18007 5.2006 7.71352 5.09449C8.24697 4.98838 8.7999 5.04284 9.3024 5.25098C9.8049 5.45912 10.2344 5.81159 10.5366 6.26383C10.8387 6.71606 11 7.24775 11 7.79165C11 8.52099 10.7103 9.22047 10.1946 9.73619C9.67884 10.2519 8.97937 10.5416 8.25002 10.5416ZM17.1784 10.835C17.765 10.1744 18.1482 9.35828 18.2818 8.48496C18.4155 7.61163 18.2939 6.7183 17.9316 5.91248C17.5694 5.10666 16.982 4.42271 16.2401 3.94295C15.4982 3.46319 14.6335 3.20808 13.75 3.20831C13.5069 3.20831 13.2737 3.30489 13.1018 3.4768C12.9299 3.64871 12.8334 3.88186 12.8334 4.12498C12.8334 4.36809 12.9299 4.60125 13.1018 4.77316C13.2737 4.94507 13.5069 5.04165 13.75 5.04165C14.4794 5.04165 15.1788 5.33138 15.6946 5.8471C16.2103 6.36283 16.5 7.0623 16.5 7.79165C16.4987 8.27312 16.371 8.74581 16.1297 9.16245C15.8884 9.57909 15.542 9.92508 15.125 10.1658C14.9891 10.2442 14.8756 10.3562 14.7954 10.491C14.7151 10.6258 14.6708 10.779 14.6667 10.9358C14.6629 11.0914 14.6987 11.2455 14.7709 11.3834C14.843 11.5213 14.9492 11.6386 15.0792 11.7241L15.4367 11.9625L15.5559 12.0266C16.6608 12.5507 17.593 13.3796 18.2426 14.4158C18.8922 15.4519 19.2322 16.6521 19.2225 17.875C19.2225 18.1181 19.3191 18.3513 19.491 18.5232C19.6629 18.6951 19.8961 18.7916 20.1392 18.7916C20.3823 18.7916 20.6155 18.6951 20.7874 18.5232C20.9593 18.3513 21.0559 18.1181 21.0559 17.875C21.0633 16.4683 20.711 15.083 20.0324 13.8509C19.3537 12.6187 18.3713 11.5805 17.1784 10.835Z" fill="white" fill-opacity="0.4"/>
</svg>
